<svg version="1.1" id="Layer_1" xmlns="http://www.w3.org/2000/svg" xmlns:xlink="http://www.w3.org/1999/xlink" x="0px" y="0px"
	 width="100%" viewBox="0 0 1024 704" enable-background="new 0 0 1024 704" xml:space="preserve">
<rect width="1024" height="704" fill="#FFFFFF"/>
<path fill="#000000" opacity="1.000000" stroke="none" 
	d="
M369.203186,88.271675 
	C371.807465,83.010948 374.311737,78.114227 376.631348,73.131531 
	C377.753387,70.721390 379.344574,69.453217 382.052948,69.680008 
	C383.045441,69.763115 384.051422,69.682533 385.051239,69.682533 
	C466.704773,69.682396 548.358398,69.724396 630.011658,69.578842 
	C634.853882,69.570213 637.391174,71.001747 639.502808,75.461037 
	C649.194885,95.928368 659.401672,116.151596 669.148987,136.593445 
	C671.084839,140.653320 673.429565,142.094269 677.913208,142.080582 
	C727.071472,141.930496 776.230469,142.040466 825.388855,141.907913 
	C830.394653,141.894409 834.120972,143.174469 837.723999,146.874786 
	C852.369446,161.915573 867.273254,176.707855 882.247498,191.423203 
	C885.701477,194.817535 887.217407,198.337006 887.191101,203.285202 
	C886.997559,239.778152 887.098694,276.272644 887.093262,312.766663 
	C887.092224,319.401306 887.062988,319.396393 880.579346,319.392975 
	C869.081177,319.386902 857.583069,319.382599 846.084900,319.387024 
	C838.698242,319.389862 838.693542,319.397430 838.693481,311.752258 
	C838.693237,282.090363 838.612915,252.427994 838.786133,222.767105 
	C838.812561,218.236053 837.583130,214.865952 834.263977,211.781815 
	C828.775574,206.681900 823.400085,201.420609 818.403076,195.845428 
	C814.964539,192.009094 811.146118,190.831085 806.108643,190.844330 
	C753.950867,190.981491 701.792358,190.836929 649.634827,191.006058 
	C644.161194,191.023804 641.435608,189.179276 639.094543,184.198257 
	C629.319092,163.399857 618.982788,142.865646 608.972473,122.176361 
	C607.632751,119.407379 605.958862,118.250488 602.840698,118.253998 
	C539.184326,118.325562 475.527863,118.342125 411.871643,118.243225 
	C407.753021,118.236824 406.550812,120.756027 405.133606,123.684509 
	C395.339325,143.923096 385.351776,164.069824 375.758789,184.402954 
	C373.453400,189.289444 370.618042,191.104416 365.121796,191.079910 
	C314.297729,190.853378 263.470551,191.140167 212.649155,190.705139 
	C204.341705,190.634018 198.323624,192.927292 193.168274,199.074219 
	C189.965942,202.892471 186.605423,206.714783 182.729965,209.799042 
	C177.198868,214.200882 175.846954,219.513123 175.888977,226.364899 
	C176.158630,270.356049 176.026352,314.349670 176.018387,358.342499 
	C176.017059,365.724884 175.999603,365.728577 183.484787,365.728271 
	C217.812592,365.726959 252.140396,365.718536 286.468201,365.724884 
	C293.307800,365.726135 293.322357,365.750732 293.334198,372.622498 
	C293.355499,384.953796 293.221405,397.287537 293.443176,409.615021 
	C293.518005,413.774445 292.067230,415.086487 287.971436,415.076691 
	C236.646698,414.953857 185.321594,414.925873 133.996780,415.000549 
	C129.346939,415.007324 127.623566,413.574921 127.632607,408.678406 
	C127.760254,339.523163 127.726471,270.367554 127.647858,201.212128 
	C127.644150,197.950394 128.642914,195.545319 130.938782,193.270859 
	C147.152786,177.208069 163.321960,161.099274 179.393448,144.894104 
	C182.233444,142.030472 185.571625,142.010086 189.079803,142.009338 
	C229.406631,142.000702 269.733459,141.996338 310.060272,141.986710 
	C319.225464,141.984528 328.392303,141.862396 337.554932,142.009979 
	C340.942596,142.064514 343.049500,141.049042 344.612549,137.839767 
	C352.634216,121.369850 360.867737,105.003105 369.203186,88.271675 
z"/>
<path fill="#000000" opacity="1.000000" stroke="none" 
	d="
M441.000122,602.639160 
	C562.483093,602.639771 683.466125,602.599060 804.448914,602.753967 
	C810.914307,602.762268 815.855896,601.344360 820.174194,596.271240 
	C824.910706,590.706909 830.406799,585.779724 835.677246,580.683899 
	C837.716003,578.712769 838.743958,576.624268 838.739746,573.685181 
	C838.666382,522.692383 838.615417,471.699341 838.779175,420.707031 
	C838.796875,415.193115 835.918884,414.917206 831.844910,414.924194 
	C797.516541,414.983002 763.187988,414.977600 728.859497,414.975677 
	C720.865173,414.975250 720.858459,414.947479 720.850769,406.959473 
	C720.839417,395.127808 720.971985,383.293823 720.762817,371.465759 
	C720.687012,367.180817 722.051086,365.642761 726.487732,365.652893 
	C778.146851,365.771179 829.806580,365.785522 881.465515,365.618134 
	C886.565796,365.601624 887.122253,367.977509 887.119080,372.038239 
	C887.077148,425.530579 887.120239,479.022980 887.144958,532.515381 
	C887.153931,552.012573 887.079407,571.510681 887.256470,591.006348 
	C887.293884,595.125610 886.264282,598.333313 883.305420,601.268433 
	C867.348572,617.097168 851.467529,633.003235 835.673889,648.994812 
	C833.187256,651.512695 830.333008,651.306702 827.360474,651.307007 
	C763.536072,651.313782 699.711609,651.316711 635.887207,651.316101 
	C486.908051,651.314819 337.928864,651.283142 188.949829,651.420166 
	C183.470871,651.425232 179.733521,649.756653 175.961304,645.836975 
	C161.869308,631.194031 147.471252,616.842102 133.020325,602.550537 
	C129.359344,598.929993 127.589989,595.176453 127.616295,589.848206 
	C127.817017,549.188232 127.786888,508.526581 127.628540,467.866211 
	C127.610565,463.250854 128.704956,461.647766 133.654083,461.397736 
	C145.982025,460.774902 158.301254,461.956635 170.604660,461.101257 
	C174.431351,460.835266 175.982071,462.391998 175.963837,466.298553 
	C175.798172,501.789429 175.764801,537.280945 175.613205,572.771851 
	C175.599503,575.979004 176.432739,578.555725 178.766632,580.821594 
	C185.219269,587.086304 191.678116,593.353638 197.886749,599.856445 
	C200.568726,602.665466 203.674637,602.666931 207.036438,602.665955 
	C284.857666,602.644104 362.678864,602.643433 441.000122,602.639160 
z"/>
<path fill="#000000" opacity="1.000000" stroke="none" 
	d="
M502.020538,225.652130 
	C540.638062,224.572815 575.100891,235.404739 606.090576,257.503418 
	C617.005859,265.287079 626.350830,274.752991 635.250183,284.713562 
	C637.819580,287.589325 637.667297,289.559845 634.642822,292.084015 
	C624.799377,300.298950 615.082764,308.671234 605.486633,317.174072 
	C602.468018,319.848755 600.785278,318.799469 598.597778,316.209381 
	C580.659302,294.969238 558.019592,281.684143 530.802551,275.902771 
	C468.910583,262.755920 404.937561,303.677185 391.671448,365.692902 
	C376.406311,437.053680 423.436035,494.093658 482.787354,507.276581 
	C528.720886,517.479187 577.875305,497.755157 604.671448,458.960175 
	C612.607361,447.470764 618.746765,435.221344 621.854980,421.533569 
	C623.231140,415.473236 622.967468,414.993103 616.549683,414.991211 
	C582.553467,414.981049 548.557190,415.012085 514.560974,415.026886 
	C513.227966,415.027466 511.894958,414.996979 510.562012,415.000031 
	C507.908417,415.006042 506.657501,413.815125 506.669037,411.039551 
	C506.726471,397.208099 506.722351,383.376160 506.662384,369.544708 
	C506.650177,366.727966 507.950989,365.633087 510.613495,365.736908 
	C511.777924,365.782349 512.946106,365.725677 514.112610,365.725586 
	C564.107178,365.721130 614.101685,365.716125 664.096252,365.716248 
	C671.573975,365.716278 671.643005,365.720917 672.349060,372.916321 
	C678.765381,438.301331 655.031738,490.507538 602.009705,528.616699 
	C569.372986,552.074036 532.115906,562.002930 491.873840,557.360352 
	C424.192200,549.552307 377.532837,513.087402 351.588562,450.654694 
	C340.136230,423.095551 338.019440,393.901917 343.021637,364.291077 
	C347.754028,336.277222 358.712311,310.964996 376.251495,288.754242 
	C395.335907,264.586639 419.396179,246.825821 448.408081,236.098251 
	C465.536865,229.764603 483.201752,225.995651 502.020538,225.652130 
z"/>
<path fill="#000000" opacity="1.000000" stroke="none" 
	d="
M220.946518,243.054260 
	C217.415741,239.487152 214.205017,236.099472 210.855545,232.855011 
	C208.628342,230.697632 208.251953,228.743896 210.786224,226.599411 
	C211.800507,225.741135 212.793625,224.823181 213.631577,223.797729 
	C216.097763,220.779724 218.384674,220.897827 221.047760,223.686203 
	C226.683289,229.586838 232.474060,235.339340 238.208130,241.145721 
	C243.710098,246.717087 249.186310,252.314651 254.746445,257.827484 
	C256.702759,259.767120 257.328308,261.273224 254.992752,263.588531 
	C243.877197,274.607635 232.945679,285.812195 221.866776,296.868744 
	C220.460464,298.272217 219.091690,301.107239 216.642029,299.597382 
	C213.573639,297.706146 210.546326,295.312286 209.162918,291.822205 
	C208.489807,290.124054 210.561356,288.964020 211.679413,287.823242 
	C219.375519,279.970978 227.018661,272.060425 234.929077,264.427948 
	C237.816040,261.642426 237.714645,259.853973 234.864563,257.186066 
	C230.128067,252.752319 225.741516,247.944717 220.946518,243.054260 
z"/>
<path fill="#000000" opacity="1.000000" stroke="none" 
	d="
M263.382690,288.757019 
	C279.992767,288.713806 296.142822,288.867706 312.285645,288.593201 
	C317.119965,288.511017 318.694397,290.018402 318.471497,294.829163 
	C318.131653,302.163513 318.403503,302.227814 312.528625,302.236145 
	C297.047150,302.258118 281.565399,302.268829 266.084351,302.178833 
	C263.963959,302.166504 260.613495,303.187225 260.467499,299.806458 
	C260.306274,296.073303 257.907898,291.485687 263.382690,288.757019 
z"/>
</svg>
